<svg id="visual" viewBox="0 0 350 650" width="350" height="650" xmlns="http://www.w3.org/2000/svg" xmlns:xlink="http://www.w3.org/1999/xlink" version="1.1"><rect x="0" y="0" width="350" height="650" fill="#001220"></rect><defs><linearGradient id="grad1_0" x1="0%" y1="0%" x2="100%" y2="100%"><stop offset="30%" stop-color="#001220" stop-opacity="1"></stop><stop offset="70%" stop-color="#001220" stop-opacity="1"></stop></linearGradient></defs><defs><linearGradient id="grad2_0" x1="0%" y1="0%" x2="100%" y2="100%"><stop offset="30%" stop-color="#001220" stop-opacity="1"></stop><stop offset="70%" stop-color="#001220" stop-opacity="1"></stop></linearGradient></defs><g transform="translate(350, 0)"><path d="M0 140C-19.1 139 -38.1 138 -53.6 129.3C-69 120.6 -80.8 104.2 -89.1 89.1C-97.4 74 -102.1 60.2 -109.9 45.5C-117.8 30.9 -128.9 15.5 -140 0L0 0Z" fill="#FBAE3C"></path></g><g transform="translate(0, 650)"><path d="M0 -140C19.8 -139.4 39.5 -138.7 53.6 -129.3C67.6 -119.9 76 -101.8 88.4 -88.4C100.8 -75 117.3 -66.4 126.6 -52.4C135.9 -38.5 137.9 -19.2 140 0L0 0Z" fill="#FBAE3C"></path></g></svg>