<svg id="visual" viewBox="0 0 900 960" width="900" height="960" xmlns="http://www.w3.org/2000/svg" xmlns:xlink="http://www.w3.org/1999/xlink" version="1.1"><rect x="0" y="0" width="900" height="960" fill="#001220"></rect><defs><linearGradient id="grad1_0" x1="0%" y1="0%" x2="100%" y2="100%"><stop offset="30%" stop-color="#001220" stop-opacity="1"></stop><stop offset="70%" stop-color="#001220" stop-opacity="1"></stop></linearGradient></defs><defs><linearGradient id="grad2_0" x1="0%" y1="0%" x2="100%" y2="100%"><stop offset="30%" stop-color="#001220" stop-opacity="1"></stop><stop offset="70%" stop-color="#001220" stop-opacity="1"></stop></linearGradient></defs><g transform="translate(900, 0)"><path d="M0 230.3C-22.5 207.2 -45.1 184.2 -72.3 174.6C-99.6 165.1 -131.5 169 -157 157C-182.5 145 -201.6 117 -212.8 88.1C-223.9 59.3 -227.1 29.7 -230.3 0L0 0Z" fill="#FBAE3C"></path></g><g transform="translate(0, 960)"><path d="M0 -230.3C31.2 -228.3 62.3 -226.3 88.1 -212.8C113.9 -199.2 134.4 -174 149.9 -149.9C165.4 -125.8 175.9 -102.9 188.5 -78.1C201 -53.3 215.7 -26.6 230.3 0L0 0Z" fill="#FBAE3C"></path></g></svg>