<svg xmlns="http://www.w3.org/2000/svg" version="1.1" xmlns:xlink="http://www.w3.org/1999/xlink" xmlns:svgjs="http://svgjs.dev/svgjs" width="2100" height="900" preserveAspectRatio="none" viewBox="0 0 2100 900"><g mask="url(&quot;#SvgjsMask1028&quot;)" fill="none"><path d="M0 110.2C26.46 47.35 35.41 29.06 94.74 0C147.91 -26.04 159.87 0 225 0C334.19 0 394.07 -55.32 443.38 0C494.34 57.18 422.78 115.48 425.54 225C426.09 246.73 431.27 250.94 450 262.5C556 327.91 583.31 390 675 378.95C738.83 371.25 761.03 291.81 761.03 225C761.03 185.59 716.85 197.36 675 166.5C564.3 84.86 455.92 46.35 455.92 0C455.92 -36.9 565.46 0 675 0C787.5 0 787.5 0 900 0C1012.5 0 1012.5 0 1125 0C1226.25 0 1229.13 -8.06 1327.5 0C1341.63 1.16 1336.01 15.26 1350 18.44C1459.76 43.38 1477.85 6.51 1575 56.25C1679.58 109.79 1666.11 138.81 1753.45 225C1778.61 249.83 1772.45 278.29 1800 278.29C1840.72 278.29 1848.44 256.42 1890 225C1960.94 171.36 1956.87 165.84 2025 108.17C2089.77 53.34 2083.46 34.78 2155.81 0C2195.96 -19.3 2236.1 -33.2 2250 0C2283.2 79.3 2250 112.5 2250 225C2250 337.5 2250 337.5 2250 450C2250 562.5 2250 562.5 2250 675C2250 787.5 2250 787.5 2250 900C2250 900 2250 900 2250 900C2137.5 900 2137.5 900 2025 900C1912.5 900 1912.5 900 1800 900C1721.11 900 1680.66 946.14 1642.21 900C1586.91 833.64 1627.43 787.49 1612.5 675C1597.57 562.49 1600.47 560.87 1582.5 450C1581.72 445.2 1578.76 443.66 1575 443.66C1571.2 443.66 1568.18 445.16 1567.37 450C1548.79 560.83 1558.89 563.94 1536.21 675C1512.94 788.94 1536 826.87 1475.48 900C1442.89 939.37 1412.74 900 1350 900C1259.38 900 1207.6 950.18 1168.75 900C1120.5 837.68 1193.29 774.88 1175.81 675C1171.41 649.88 1151.16 650 1125 650C1089.96 650 1056.24 644.03 1053.41 675C1044.82 769.03 1143.01 840.1 1102.17 900C1066.31 952.6 1001.09 900 900 900C787.5 900 787.5 900 675 900C562.5 900 562.5 900 450 900C337.5 900 337.5 900 225 900C131.5 900 79.47 951.06 37.99 900C-11.93 838.56 58.07 774.48 42.19 675C39.08 655.49 3.64 681.41 0 662.02C-17.46 568.91 0 556.01 0 450C0 337.5 0 337.5 0 225C0 167.6 -20.91 159.85 0 110.2" stroke="rgba(18, 247, 214, 0.1)" stroke-width="2"></path><path d="M225 417.19C208.67 417.19 196.87 430.99 196.87 450C196.87 486.77 206.68 528.75 225 528.75C245.35 528.75 274.22 484.08 274.22 450C274.22 428.3 247.35 417.19 225 417.19" stroke="rgba(18, 247, 214, 0.1)" stroke-width="2"></path><path d="M2025 348.98C1991.25 348.98 1963.13 397.2 1963.13 450C1963.13 520.51 1990.68 595.59 2025 595.59C2060.9 595.59 2103.57 519.52 2103.57 450C2103.57 396.22 2061.47 348.98 2025 348.98" stroke="rgba(18, 247, 214, 0.1)" stroke-width="2"></path><path d="M0 225C96.71 112.5 91.74 101.68 193.42 0C204.24 -10.82 209.21 0 225 0C251.47 0 270.52 -21.32 277.94 0C309.65 91.18 321.16 123.56 303.26 225C294.69 273.56 261.64 260.14 225 300C158.22 372.64 161.94 376.09 96.43 450C49.44 503.02 27.82 553.85 0 553.85C-20.39 553.85 0 501.92 0 450C0 337.5 0 337.5 0 225C0 225 0 225 0 225" stroke="rgba(18, 247, 214, 0.1)" stroke-width="2"></path><path d="M675 54C638.33 28.61 603.95 15.03 603.95 0C603.95 -11.97 639.47 0 675 0C787.5 0 787.5 0 900 0C1012.5 0 1012.5 0 1125 0C1170 0 1176.73 -18.82 1215 0C1289.23 36.51 1271.38 85.02 1350 110.66C1451.38 143.72 1475.11 83.68 1575 117.39C1644.5 140.85 1634.69 168.51 1688.79 225C1747.19 285.97 1743.24 289.7 1800 352.3C1845.25 402.2 1892.81 392.5 1892.81 450C1892.81 553.85 1852.69 675 1800 675C1744.41 675 1750.45 552.41 1676.25 450C1637.95 397.13 1625.8 364.44 1575 364.44C1523.69 364.44 1511.27 397.03 1472.03 450C1398.77 548.9 1436.87 640.47 1350 668.18C1263.35 695.82 1243.09 593.65 1125 560.71C1018.09 530.89 995.81 579.79 900 542.65C853.02 524.44 839.42 499.04 839.42 450C839.42 381.13 841.67 334.75 900 306.82C984.46 266.37 1024.24 339.56 1125 313.24C1180.86 298.65 1213.24 271.78 1213.24 225C1213.24 171.41 1182.98 116.2 1125 112.5C1026.36 106.2 1006.44 218.84 900 205C781.44 189.59 786.35 131.11 675 54" stroke="rgba(18, 247, 214, 0.1)" stroke-width="2"></path><path d="M2015 225C2015 220.6 2019.05 216.35 2025 216.35C2039.05 216.35 2055 220.55 2055 225C2055 229.47 2038.96 234.18 2025 234.18C2018.96 234.18 2015 229.52 2015 225" stroke="rgba(18, 247, 214, 0.1)" stroke-width="2"></path><path d="M2192.86 450C2192.86 385.31 2235.03 325.86 2250 325.86C2263.6 325.86 2250 387.93 2250 450C2250 562.5 2264.06 675 2250 675C2235.49 675 2192.86 559.88 2192.86 450" stroke="rgba(18, 247, 214, 0.1)" stroke-width="2"></path><path d="M111.04 900C111.04 844.58 144.29 761.78 225 727.94C313.77 690.72 340.58 770.76 450 757.89C565.58 744.29 560.17 683.94 675 675C785.17 666.43 810.53 664.63 900 722.87C983.36 777.13 1020.65 843.33 1020.65 900C1020.65 931.9 960.33 900 900 900C787.5 900 787.5 900 675 900C562.5 900 562.5 900 450 900C337.5 900 337.5 900 225 900C168.02 900 111.04 930.61 111.04 900" stroke="rgba(18, 247, 214, 0.1)" stroke-width="2"></path><path d="M1325 900C1325 820.88 1339.4 720 1350 720C1360.55 720 1367.31 817.86 1367.31 900C1367.31 907.86 1358.65 900 1350 900C1337.5 900 1325 910.88 1325 900" stroke="rgba(18, 247, 214, 0.1)" stroke-width="2"></path><path d="M1715.26 900C1715.26 816.82 1724.32 702.49 1800 675C1879.19 646.24 1927.08 714.54 2025 787.5C2078.06 827.04 2101.97 864.05 2101.97 900C2101.97 920.3 2063.48 900 2025 900C1912.5 900 1912.5 900 1800 900C1757.63 900 1715.26 929.32 1715.26 900" stroke="rgba(18, 247, 214, 0.1)" stroke-width="2"></path><path d="M900 80C835.21 80 775.86 21.73 775.86 0C775.86 -18.27 837.93 0 900 0C985.72 0 1071.43 -19.02 1071.43 0C1071.43 20.98 982.99 80 900 80" stroke="rgba(18, 247, 214, 0.1)" stroke-width="2"></path><path d="M1323.53 225C1335.84 212.93 1333.37 205.94 1350 202.87C1459.1 182.71 1469.47 170.01 1575 178.53C1606.54 181.08 1624.14 200.18 1624.14 225C1624.14 253.52 1603.66 259.15 1575 285.21C1479.93 371.65 1469.5 362.33 1376.69 450C1357 468.59 1374.47 495.65 1350 497.73C1248.63 506.36 1236.1 490.28 1125 471.43C1095.48 466.42 1068.75 461.78 1068.75 450C1068.75 437.83 1101.91 443.92 1125 423.53C1229.3 331.42 1223.34 323.26 1323.53 225" stroke="rgba(18, 247, 214, 0.1)" stroke-width="2"></path><path d="M1770 450C1770 435.12 1785.85 426.32 1800 426.32C1812.1 426.32 1822.5 436.06 1822.5 450C1822.5 475.18 1812.77 504.55 1800 504.55C1786.52 504.55 1770 474.24 1770 450" stroke="rgba(18, 247, 214, 0.1)" stroke-width="2"></path><path d="M184.09 900C184.09 880.11 192.15 843.6 225 838.24C325.1 821.89 338.08 861.31 450 856.58C563.08 851.8 562.04 822.75 675 819.23C787.04 815.74 798.98 811.66 900 842.55C931.04 852.04 939.13 881.62 939.13 900C939.13 910.35 919.57 900 900 900C787.5 900 787.5 900 675 900C562.5 900 562.5 900 450 900C337.5 900 337.5 900 225 900C204.55 900 184.09 910.99 184.09 900" stroke="rgba(18, 247, 214, 0.1)" stroke-width="2"></path><path d="M1788.31 900C1788.31 888.53 1788.44 868.97 1800 868.97C1822.41 868.97 1856.25 891.73 1856.25 900C1856.25 907.24 1828.13 900 1800 900C1794.15 900 1788.31 904.04 1788.31 900" stroke="rgba(18, 247, 214, 0.1)" stroke-width="2"></path></g><defs><mask id="SvgjsMask1028"><rect width="2100" height="900" fill="#ffffff"></rect></mask></defs></svg>